<svg xmlns="http://www.w3.org/2000/svg" viewBox="0 0 900 500" width="900" height="500">
  <!-- Background -->
  <rect width="900" height="500" fill="#0d1117"/>

  <!-- Header bar -->
  <rect width="900" height="78" fill="#161b22"/>
  <rect y="77" width="900" height="1" fill="#30363d"/>

  <!-- Title -->
  <text x="24" y="34" font-family="'Segoe UI',Arial,sans-serif" font-size="20" font-weight="bold" fill="#e6edf3">DORA Metrics Dashboard</text>
  <text x="24" y="58" font-family="'Segoe UI',Arial,sans-serif" font-size="12" fill="#8b949e">AI-OSS Project · Last 30 days · Auto-collected via GitHub Actions</text>
  <text x="876" y="44" font-family="'Segoe UI',Arial,sans-serif" font-size="11" fill="#8b949e" text-anchor="end">2026-03-13</text>

  <!-- ═══════════════ CARD 1: Deployment Frequency (top-left) ═══════════════ -->
  <g transform="translate(24,96)">
    <rect width="414" height="178" rx="6" fill="#161b22" stroke="#30363d" stroke-width="1"/>
    <!-- icon -->
    <rect x="16" y="16" width="34" height="34" rx="6" fill="#0d2a4a"/>
    <text x="33" y="38" text-anchor="middle" font-family="'Segoe UI'" font-size="18" fill="#58a6ff">&#x1F680;</text>
    <!-- labels -->
    <text x="60" y="31" font-family="'Segoe UI',Arial,sans-serif" font-size="11" letter-spacing=".06em" fill="#8b949e">DEPLOYMENT FREQUENCY</text>
    <text x="60" y="47" font-family="'Segoe UI',Arial,sans-serif" font-size="10" fill="#484f58">&#xBC30;&#xD3EC; &#xBE48;&#xB3C4;</text>
    <!-- big value -->
    <text x="16" y="105" font-family="'Segoe UI',Arial,sans-serif" font-size="44" font-weight="700" fill="#58a6ff">1.6</text>
    <text x="76" y="105" font-family="'Segoe UI',Arial,sans-serif" font-size="15" fill="#8b949e">/ week</text>
    <!-- DORA badge -->
    <rect x="16" y="114" width="54" height="20" rx="10" fill="#0d2a4a"/>
    <text x="43" y="128" font-family="'Segoe UI',Arial,sans-serif" font-size="11" font-weight="700" fill="#58a6ff" text-anchor="middle">High</text>
    <!-- mini bar chart -->
    <text x="16" y="154" font-family="'Segoe UI',Arial,sans-serif" font-size="9" fill="#484f58">W-4    W-3    W-2    W-1    Now</text>
    <rect x="16"  y="138" width="18" height="14" rx="2" fill="#1f6feb" opacity=".7"/>
    <rect x="52"  y="133" width="18" height="19" rx="2" fill="#1f6feb" opacity=".8"/>
    <rect x="88"  y="136" width="18" height="16" rx="2" fill="#1f6feb"/>
    <rect x="124" y="131" width="18" height="21" rx="2" fill="#1f6feb"/>
    <rect x="160" y="128" width="18" height="24" rx="2" fill="#238636"/>
  </g>

  <!-- ═══════════════ CARD 2: Lead Time (top-right) ═══════════════ -->
  <g transform="translate(462,96)">
    <rect width="414" height="178" rx="6" fill="#161b22" stroke="#30363d" stroke-width="1"/>
    <rect x="16" y="16" width="34" height="34" rx="6" fill="#1a3a22"/>
    <text x="33" y="38" text-anchor="middle" font-family="'Segoe UI'" font-size="18" fill="#3fb950">&#x23F1;</text>
    <text x="60" y="31" font-family="'Segoe UI',Arial,sans-serif" font-size="11" letter-spacing=".06em" fill="#8b949e">LEAD TIME FOR CHANGES</text>
    <text x="60" y="47" font-family="'Segoe UI',Arial,sans-serif" font-size="10" fill="#484f58">&#xBCC0;&#xACBD; &#xB9AC;&#xB4DC;&#xD0C0;&#xC784;</text>
    <text x="16" y="105" font-family="'Segoe UI',Arial,sans-serif" font-size="44" font-weight="700" fill="#3fb950">4.2</text>
    <text x="76" y="105" font-family="'Segoe UI',Arial,sans-serif" font-size="15" fill="#8b949e">hours</text>
    <rect x="16" y="114" width="54" height="20" rx="10" fill="#0d2a4a"/>
    <text x="43" y="128" font-family="'Segoe UI',Arial,sans-serif" font-size="11" font-weight="700" fill="#58a6ff" text-anchor="middle">High</text>
    <!-- progress bar: Elite < 1h, High < 24h -->
    <text x="16"  y="152" font-family="'Segoe UI',Arial,sans-serif" font-size="9" fill="#238636">Elite &lt;1h</text>
    <text x="200" y="152" font-family="'Segoe UI',Arial,sans-serif" font-size="9" fill="#8b949e">High &lt;24h</text>
    <text x="360" y="152" font-family="'Segoe UI',Arial,sans-serif" font-size="9" fill="#f85149" text-anchor="end">Low &gt;168h</text>
    <rect x="16" y="155" width="382" height="8" rx="4" fill="#21262d"/>
    <rect x="16" y="155" width="60" height="8" rx="4" fill="#3fb950" opacity=".5"/>
    <circle cx="79" cy="159" r="5" fill="#58a6ff" stroke="#0d1117" stroke-width="1.5"/>
    <text x="84" y="168" font-family="'Segoe UI',Arial,sans-serif" font-size="9" fill="#58a6ff">4.2h</text>
  </g>

  <!-- ═══════════════ CARD 3: MTTR (bottom-left) ═══════════════ -->
  <g transform="translate(24,292)">
    <rect width="414" height="178" rx="6" fill="#161b22" stroke="#30363d" stroke-width="1"/>
    <rect x="16" y="16" width="34" height="34" rx="6" fill="#3a2400"/>
    <text x="33" y="38" text-anchor="middle" font-family="'Segoe UI'" font-size="18" fill="#f0883e">&#x1F527;</text>
    <text x="60" y="31" font-family="'Segoe UI',Arial,sans-serif" font-size="11" letter-spacing=".06em" fill="#8b949e">MEAN TIME TO RECOVERY</text>
    <text x="60" y="47" font-family="'Segoe UI',Arial,sans-serif" font-size="10" fill="#484f58">&#xD3C9;&#xADE0; &#xBCF5;&#xAD6C; &#xC2DC;&#xAC04; (MTTR)</text>
    <text x="16" y="105" font-family="'Segoe UI',Arial,sans-serif" font-size="44" font-weight="700" fill="#f0883e">2.1</text>
    <text x="76" y="105" font-family="'Segoe UI',Arial,sans-serif" font-size="15" fill="#8b949e">hours</text>
    <rect x="16" y="114" width="54" height="20" rx="10" fill="#0d2a4a"/>
    <text x="43" y="128" font-family="'Segoe UI',Arial,sans-serif" font-size="11" font-weight="700" fill="#58a6ff" text-anchor="middle">High</text>
    <!-- trend line -->
    <text x="16" y="150" font-family="'Segoe UI',Arial,sans-serif" font-size="9" fill="#484f58">&#xCD5C;&#xADFC; &#xC778;&#xC2DC;&#xB358;&#xD2B8; &#xBCF5;&#xAD6C; &#xCD94;&#xC774;</text>
    <polyline points="16,168 72,161 128,165 184,156 240,159 296,150 352,152" stroke="#f0883e" stroke-width="2" fill="none" stroke-linejoin="round"/>
    <circle cx="352" cy="152" r="4" fill="#f0883e"/>
    <text x="356" y="156" font-family="'Segoe UI',Arial,sans-serif" font-size="9" fill="#3fb950">&#x25BC; &#xAC1C;&#xC120;</text>
    <rect x="16" y="170" width="382" height="1" fill="#21262d"/>
  </g>

  <!-- ═══════════════ CARD 4: CFR (bottom-right) ═══════════════ -->
  <g transform="translate(462,292)">
    <rect width="414" height="178" rx="6" fill="#161b22" stroke="#30363d" stroke-width="1"/>
    <rect x="16" y="16" width="34" height="34" rx="6" fill="#3a0d0d"/>
    <text x="33" y="37" text-anchor="middle" font-family="'Segoe UI'" font-size="16" fill="#f85149">&#x274C;</text>
    <text x="60" y="31" font-family="'Segoe UI',Arial,sans-serif" font-size="11" letter-spacing=".06em" fill="#8b949e">CHANGE FAILURE RATE</text>
    <text x="60" y="47" font-family="'Segoe UI',Arial,sans-serif" font-size="10" fill="#484f58">&#xBCC0;&#xACBD; &#xC2E4;&#xD328;&#xC728;</text>
    <text x="16" y="105" font-family="'Segoe UI',Arial,sans-serif" font-size="44" font-weight="700" fill="#f85149">8.3</text>
    <text x="76" y="105" font-family="'Segoe UI',Arial,sans-serif" font-size="15" fill="#8b949e">%</text>
    <rect x="16" y="114" width="54" height="20" rx="10" fill="#0d2a4a"/>
    <text x="43" y="128" font-family="'Segoe UI',Arial,sans-serif" font-size="11" font-weight="700" fill="#58a6ff" text-anchor="middle">High</text>
    <!-- segmented bar -->
    <text x="16"  y="152" font-family="'Segoe UI',Arial,sans-serif" font-size="9" fill="#238636">Elite &#x2264;5%</text>
    <text x="382" y="152" font-family="'Segoe UI',Arial,sans-serif" font-size="9" fill="#f85149" text-anchor="end">Low &gt;15%</text>
    <rect x="16"  y="155" width="382" height="10" rx="5" fill="#21262d"/>
    <!-- green zone 0-5% = 76px out of 382 -->
    <rect x="16"  y="155" width="76"  height="10" rx="5" fill="#238636" opacity=".8"/>
    <!-- yellow zone 5-10% -->
    <rect x="92"  y="155" width="76"  height="10" fill="#9e6a03" opacity=".8"/>
    <!-- current marker = 8.3% → x = 16 + (8.3/25)*382 ≈ 143px -->
    <line x1="143" y1="152" x2="143" y2="168" stroke="#f85149" stroke-width="1.5" stroke-dasharray="3,2"/>
    <text x="147" y="168" font-family="'Segoe UI',Arial,sans-serif" font-size="9" fill="#f85149">8.3%</text>
    <text x="18"  y="172" font-family="'Segoe UI',Arial,sans-serif" font-size="9" fill="#484f58">0%</text>
    <text x="382" y="172" font-family="'Segoe UI',Arial,sans-serif" font-size="9" fill="#484f58" text-anchor="end">25%</text>
  </g>

  <!-- Footer -->
  <text x="450" y="492" text-anchor="middle" font-family="'Segoe UI',Arial,sans-serif" font-size="11" fill="#484f58">Auto-generated by GitHub Actions · DORA Metrics · kwondohun0308/AI-OSS</text>
</svg>
